PathFileType	4	(X/Y/Z)	Patient4_TMGait_0pt8_01_left_48.trc.trc
DataRate	CameraRate	NumFrames	NumMarkers	Units	OrigDataRate	OrigDataStartFrame	OrigNumFrames
86.956521739130	86.956521739130	5	33	mm	86.956521739130	1	       141
Frame#	Time	Sacral			L.Shoulder			Chest			R.Shoulder			Neck			R.ASIS			L.ASIS			R.Thigh.Superior			R.Thigh.Lateral			R.Thigh.Inferior			R.Patella			L.Thigh.Superior			L.Thigh.Lateral			L.Thigh.Inferior			L.Patella			L.Shank.Superior			L.Shank.Lateral			L.Shank.Inferior			R.Shank.Superior			R.Shank.Lateral			R.Shank.Inferior			R.Heel			R.Midfoot.Superior			R.Midfoot.Lateral			R.Toe			L.Heel			L.Midfoot.Lateral			L.Midfoot.Superior			L.Toe			L.Elbow			L.Wrist			R.Elbow			R.Wrist			
		X1	Y1	Z1	X2	Y2	Z2	X3	Y3	Z3	X4	Y4	Z4	X5	Y5	Z5	X6	Y6	Z6	X7	Y7	Z7	X8	Y8	Z8	X9	Y9	Z9	X10	Y10	Z10	X11	Y11	Z11	X12	Y12	Z12	X13	Y13	Z13	X14	Y14	Z14	X15	Y15	Z15	X16	Y16	Z16	X17	Y17	Z17	X18	Y18	Z18	X19	Y19	Z19	X20	Y20	Z20	X21	Y21	Z21	X22	Y22	Z22	X23	Y23	Z23	X24	Y24	Z24	X25	Y25	Z25	X26	Y26	Z26	X27	Y27	Z27	X28	Y28	Z28	X29	Y29	Z29	X30	Y30	Z30	X31	Y31	Z31	X32	Y32	Z32	X33	Y33	Z33	

1	53.440000000000	887.378898782806	1008.426419425823	529.682122284451	1068.146773228123	1430.617055495045	339.789569996761	1174.773970121928	1360.767459658307	499.093350548368	1099.114342817419	1436.537979693154	675.472503716521	1059.530423607785	1494.485026537502	495.876306580020	1115.005181432919	947.469542970885	648.479186480682	1103.217792771900	960.347713458506	373.247383876490	1155.696802669047	743.886996467589	624.173423481927	1068.223720452804	635.886428089582	679.646977674356	1147.527846425719	582.256658617796	602.918268874780	1145.130167640815	493.548801559209	607.482140589665	1179.305735192329	771.663895620400	403.517191005721	1131.811994112699	648.715037268615	321.212911278995	1234.436938674706	581.431250561218	382.100155548832	1243.901209874669	491.019708558626	373.667844272484	1172.759534297274	427.217187904715	363.914368763780	1029.260426293347	396.163401813080	312.009353806181	1007.070349809374	266.502885346164	363.261291524096	1115.826105562968	406.229938847436	612.970586117504	1040.950222874363	303.435145801774	670.709231707389	1083.744816107016	208.122976728150	608.049819342609	947.295309158392	45.212816974327	572.343641072728	1118.248249052500	98.411990905001	615.725401796498	1028.011173660430	38.068372731038	650.061139957165	1236.401993888084	43.366109144298	647.318300037735	812.147463537587	219.652259779952	396.909944401715	866.063115691463	168.451418661591	317.000262596363	971.114609382337	163.238895724965	341.028195361379	1035.527625762244	43.343897127170	312.029269783505	1059.018500128398	1072.392347365194	239.846171591033	1217.003009382086	861.294968765235	244.325351401547	1067.270702101558	1085.207248337570	793.126595532875	1236.003074942501	886.319316851743	771.396853472330	
2	53.451500000000	886.417075933597	1008.657461047471	532.042048433749	1066.287255327084	1430.062419100621	340.121357596010	1173.945972349938	1360.577910824379	498.827760897813	1099.761928561034	1436.858733277197	675.637908776140	1059.033524034768	1494.480695497496	496.087137734744	1114.458771408006	947.232754166909	648.991300885091	1099.592998623592	960.058663273354	373.973469343411	1152.199844068608	742.909926121221	623.873625583012	1064.140399542811	635.682945825916	680.032227355831	1141.918220819875	581.241840736843	602.788247421448	1138.264652169483	492.773343037766	607.302604481901	1179.175670115060	775.491992584262	403.628786080512	1133.901808446895	651.685121993564	321.301041687180	1238.125460558744	586.667376498976	381.438322322765	1249.973662471586	497.134265181525	372.980380031057	1182.027607529511	431.112888521795	363.212455450297	1040.484170704638	392.448724508233	312.536180318769	1026.457614164171	261.866045301599	362.926002249751	1108.556674785910	405.608661237195	612.949231546920	1033.121481076711	303.289076690715	670.861313603769	1075.088526903813	207.722695567311	607.951996125899	937.524945306963	45.210851443720	572.404563734466	1108.449469031924	98.172911227312	615.461100570031	1018.259504437532	38.028687228598	650.129813031628	1226.633860688743	43.287465823864	647.365194477722	836.005800565741	203.222863376775	398.269320069795	891.515020591077	156.400364070863	317.247415106021	996.473793333523	157.653764371827	340.011146641907	1067.401269502534	42.848656270589	308.891123747564	1052.811487993820	1071.211532175219	242.635398516018	1192.360873587887	850.759423590897	246.526742617619	1079.544867484844	1085.656912332797	793.803782648029	1263.112768624448	907.276251978376	766.183411333231	
3	53.463000000000	885.464203332818	1008.874498104242	534.335920162854	1064.465476613059	1429.503744142874	340.435865112821	1173.138198279489	1360.372286523252	498.549534221295	1100.411193508487	1437.155380047496	675.784426503295	1058.554757261895	1494.456883008919	496.281905970720	1113.912564208445	946.985093611882	649.469659708830	1096.096414947122	959.795173399910	374.635110628207	1148.745571929136	741.931001719170	623.522834330835	1060.106651517016	635.466791962940	680.393889299703	1136.372255046315	580.221960075635	602.635534210444	1131.479551087999	491.993648405141	607.113800913476	1178.978107090549	779.179701356231	403.716784717252	1135.845664907771	654.508313863576	321.420144257325	1241.590619602844	591.711211727833	380.812833961743	1255.762149866490	503.079845184749	372.315966226925	1191.037715371207	434.906882894862	362.517841682159	1051.571434109087	388.612030272160	313.030662375536	1045.751717725738	257.212534518942	362.542130970719	1101.371341594848	404.978978307733	612.913795618912	1025.390716073248	303.131652777417	671.003318442602	1066.525278707455	207.318471174254	607.853652182111	927.876036634444	45.198694075129	572.469201287880	1098.766656316792	97.943368706397	615.207263609856	1008.625515212657	37.987143907271	650.201643485492	1216.982871966990	43.213184978554	647.408963736769	859.951332356234	186.835966080128	399.548211966769	916.975680000389	144.389037695732	317.413209529370	1021.759382490458	152.092280159374	338.943800081237	1099.121616484310	42.443570745153	305.696843958625	1046.541615065383	1070.055073218781	245.331926802432	1168.009009935425	840.707720175205	248.692766503686	1091.763661413596	1086.153919604957	794.400204791128	1289.620938583325	928.328302224088	760.956281595503	
4	53.474500000000	884.535898161944	1009.059605363842	536.500072323387	1062.709963790468	1428.933505371224	340.710754445289	1172.373032450014	1360.124359694594	498.230494858023	1101.082957154944	1437.397621503262	675.879383761433	1058.112307876541	1494.387755617470	496.438609539211	1113.372796905071	946.705074304946	649.868950856894	1092.830020916376	959.562770411104	375.165468123083	1145.343626360383	740.930593286856	623.082763878454	1056.111833265863	635.225825959166	680.709039361300	1130.879954820159	579.180959353504	602.444065554878	1124.769371305900	491.201312244973	606.909287126762	1178.619558952496	782.560185720090	403.755638738715	1137.476561738718	657.032859005682	321.563275910574	1244.580790598879	596.348988310660	380.257377399977	1260.970639306126	508.700467988192	371.702727687688	1199.557505177311	438.522090751358	361.844481627800	1062.512370523132	384.534191288999	313.434281361881	1065.011709166855	252.587677757602	362.076052816667	1094.259914850227	404.334028874971	612.852862645260	1017.757174467513	302.955417991253	671.127211812326	1058.050207252550	206.908008908126	607.754242309401	918.365269049943	45.168553814078	572.542338922694	1089.213097841939	97.732075616572	614.975082712921	999.123079359341	37.942453518526	650.279372094783	1207.462535328543	43.147326672257	647.446249210053	884.312397450817	170.561566929331	400.641185358257	942.745598238091	132.508211283640	317.435708031891	1047.126821549761	146.672290833576	337.814904004092	1130.793030485767	42.385566063734	302.524018677443	1040.049920638577	1068.984547981455	247.842241618401	1144.074472332798	831.604692027009	250.812748111893	1104.008972781584	1086.803600416373	794.813766400482	1314.998059279594	949.777165369078	755.655884357208	
5	53.486000000000	883.642421370350	1009.200189722353	538.480982690987	1061.042267156285	1428.345536463311	340.926491656902	1171.670502989056	1359.809638636960	497.843151695622	1101.801486293736	1437.558826040605	675.892045547342	1057.721198248966	1494.251017951032	496.538614771205	1112.845262357187	946.369215544234	650.145726549702	1089.858274829535	959.351055253970	375.516662406875	1141.993467546719	739.888693400622	622.534749198617	1052.130825403962	634.951080136613	680.960551915499	1125.414618070231	578.105023032805	602.206220979078	1118.108694229019	490.390143369847	606.686022552762	1178.019182262986	785.488692348026	403.725680357386	1138.646659503944	659.134775968164	321.708903272074	1246.882765743115	600.396106263074	379.801163643852	1265.359508442044	513.870706531232	371.168119584236	1207.405085700493	441.902704029660	361.213352110383	1073.343231282156	380.132782882645	313.683984003591	1084.315683907472	248.066847127397	361.513328486063	1087.191522663168	403.669066991246	612.757594128536	1010.195791083351	302.756590296322	671.227876064669	1049.637390346574	206.490525848156	607.652272927273	908.980090865474	45.115332752852	572.628402326819	1079.775755573313	97.545702217093	614.774348766053	989.738135810051	37.893827783616	650.363850643711	1198.059906083066	43.092796799418	647.475801477680	909.399881325446	154.506720780689	401.446643050109	969.138664137968	120.882624593514	317.270931078882	1072.751599411416	141.542766422896	336.639047486641	1162.551378773307	42.949281379891	299.505147290515	1033.184493254948	1068.065372075914	250.087668531049	1120.642955867722	823.808023496509	252.885399389849	1116.379802983725	1087.710991668968	794.958591556957	1338.819310907734	971.895773496061	750.230975749012	
